<svg width="1273" height="1592" viewBox="0 0 1273 1592" fill="none" xmlns="http://www.w3.org/2000/svg">
<path d="M2 386H639H1271" stroke="#A68A64" stroke-width="3" stroke-linecap="square"/>
<path d="M2 394H639H1271" stroke="#A68A64" stroke-width="3" stroke-linecap="square"/>
<path d="M2 379H639H1271" stroke="#A68A64" stroke-width="3" stroke-linecap="square"/>
<path d="M2 352H639H1271" stroke="#A68A64" stroke-width="3" stroke-linecap="square"/>
<path d="M2 359H639H1271" stroke="#A68A64" stroke-width="3" stroke-linecap="square"/>
<path d="M2 365H639H1271" stroke="#A68A64" stroke-width="3" stroke-linecap="square"/>
<path d="M2 372H639H1271" stroke="#A68A64" stroke-width="3" stroke-linecap="square"/>
<path d="M2 336H639H1271" stroke="#A68A64" stroke-width="3" stroke-linecap="square"/>
<path d="M2 344H639H1271" stroke="#A68A64" stroke-width="3" stroke-linecap="square"/>
<path d="M2 329H639H1271" stroke="#A68A64" stroke-width="3" stroke-linecap="square"/>
<path d="M2 302H639H1271" stroke="#A68A64" stroke-width="3" stroke-linecap="square"/>
<path d="M2 310H639H1271" stroke="#A68A64" stroke-width="3" stroke-linecap="square"/>
<path d="M2 315H639H1271" stroke="#A68A64" stroke-width="3" stroke-linecap="square"/>
<path d="M2 322H639H1271" stroke="#A68A64" stroke-width="3" stroke-linecap="square"/>
<path d="M2 286H639H1271" stroke="#A68A64" stroke-width="3" stroke-linecap="square"/>
<path d="M2 294H639H1271" stroke="#A68A64" stroke-width="3" stroke-linecap="square"/>
<path d="M2 279H639H1271" stroke="#A68A64" stroke-width="3" stroke-linecap="square"/>
<path d="M2 252H639H1271" stroke="#A68A64" stroke-width="3" stroke-linecap="square"/>
<path d="M2 260H639H1271" stroke="#A68A64" stroke-width="3" stroke-linecap="square"/>
<path d="M2 265H639H1271" stroke="#A68A64" stroke-width="3" stroke-linecap="square"/>
<path d="M2 272H639H1271" stroke="#A68A64" stroke-width="3" stroke-linecap="square"/>
<path d="M2 236H639H1271" stroke="#A68A64" stroke-width="3" stroke-linecap="square"/>
<path d="M2 244H639H1271" stroke="#A68A64" stroke-width="3" stroke-linecap="square"/>
<path d="M2 229H639H1271" stroke="#A68A64" stroke-width="3" stroke-linecap="square"/>
<path d="M2 202H639H1271" stroke="#A68A64" stroke-width="3" stroke-linecap="square"/>
<path d="M2 210H639H1271" stroke="#A68A64" stroke-width="3" stroke-linecap="square"/>
<path d="M2 215H639H1271" stroke="#A68A64" stroke-width="3" stroke-linecap="square"/>
<path d="M2 222H639H1271" stroke="#A68A64" stroke-width="3" stroke-linecap="square"/>
<path d="M1271 10H634H2" stroke="#A68A64" stroke-width="3" stroke-linecap="square"/>
<path d="M1271 2H634H2" stroke="#A68A64" stroke-width="3" stroke-linecap="square"/>
<path d="M1271 17H634H2" stroke="#A68A64" stroke-width="3" stroke-linecap="square"/>
<path d="M1271 44H634H2" stroke="#A68A64" stroke-width="3" stroke-linecap="square"/>
<path d="M1271 37H634H2" stroke="#A68A64" stroke-width="3" stroke-linecap="square"/>
<path d="M1271 31H634H2" stroke="#A68A64" stroke-width="3" stroke-linecap="square"/>
<path d="M1271 24H634H2" stroke="#A68A64" stroke-width="3" stroke-linecap="square"/>
<path d="M1271 60H634H2" stroke="#A68A64" stroke-width="3" stroke-linecap="square"/>
<path d="M1271 52H634H2" stroke="#A68A64" stroke-width="3" stroke-linecap="square"/>
<path d="M1271 67H634H2" stroke="#A68A64" stroke-width="3" stroke-linecap="square"/>
<path d="M1271 94H634H2" stroke="#A68A64" stroke-width="3" stroke-linecap="square"/>
<path d="M1271 86H634H2" stroke="#A68A64" stroke-width="3" stroke-linecap="square"/>
<path d="M1271 81H634H2" stroke="#A68A64" stroke-width="3" stroke-linecap="square"/>
<path d="M1271 74H634H2" stroke="#A68A64" stroke-width="3" stroke-linecap="square"/>
<path d="M1271 110H634H2" stroke="#A68A64" stroke-width="3" stroke-linecap="square"/>
<path d="M1271 102H634H2" stroke="#A68A64" stroke-width="3" stroke-linecap="square"/>
<path d="M1271 117H634H2" stroke="#A68A64" stroke-width="3" stroke-linecap="square"/>
<path d="M1271 144H634H2" stroke="#A68A64" stroke-width="3" stroke-linecap="square"/>
<path d="M1271 136H634H2" stroke="#A68A64" stroke-width="3" stroke-linecap="square"/>
<path d="M1271 131H634H2" stroke="#A68A64" stroke-width="3" stroke-linecap="square"/>
<path d="M1271 124H634H2" stroke="#A68A64" stroke-width="3" stroke-linecap="square"/>
<path d="M1271 160H634H2" stroke="#A68A64" stroke-width="3" stroke-linecap="square"/>
<path d="M1271 152H634H2" stroke="#A68A64" stroke-width="3" stroke-linecap="square"/>
<path d="M1271 167H634H2" stroke="#A68A64" stroke-width="3" stroke-linecap="square"/>
<path d="M1271 194H634H2" stroke="#A68A64" stroke-width="3" stroke-linecap="square"/>
<path d="M1271 186H634H2" stroke="#A68A64" stroke-width="3" stroke-linecap="square"/>
<path d="M1271 181H634H2" stroke="#A68A64" stroke-width="3" stroke-linecap="square"/>
<path d="M1271 174H634H2" stroke="#A68A64" stroke-width="3" stroke-linecap="square"/>
<path d="M2 784H639H1271" stroke="#A68A64" stroke-width="3" stroke-linecap="square"/>
<path d="M2 792H639H1271" stroke="#A68A64" stroke-width="3" stroke-linecap="square"/>
<path d="M2 777H639H1271" stroke="#A68A64" stroke-width="3" stroke-linecap="square"/>
<path d="M2 750H639H1271" stroke="#A68A64" stroke-width="3" stroke-linecap="square"/>
<path d="M2 757H639H1271" stroke="#A68A64" stroke-width="3" stroke-linecap="square"/>
<path d="M2 763H639H1271" stroke="#A68A64" stroke-width="3" stroke-linecap="square"/>
<path d="M2 770H639H1271" stroke="#A68A64" stroke-width="3" stroke-linecap="square"/>
<path d="M2 734H639H1271" stroke="#A68A64" stroke-width="3" stroke-linecap="square"/>
<path d="M2 742H639H1271" stroke="#A68A64" stroke-width="3" stroke-linecap="square"/>
<path d="M2 727H639H1271" stroke="#A68A64" stroke-width="3" stroke-linecap="square"/>
<path d="M2 700H639H1271" stroke="#A68A64" stroke-width="3" stroke-linecap="square"/>
<path d="M2 708H639H1271" stroke="#A68A64" stroke-width="3" stroke-linecap="square"/>
<path d="M2 713H639H1271" stroke="#A68A64" stroke-width="3" stroke-linecap="square"/>
<path d="M2 720H639H1271" stroke="#A68A64" stroke-width="3" stroke-linecap="square"/>
<path d="M2 684H639H1271" stroke="#A68A64" stroke-width="3" stroke-linecap="square"/>
<path d="M2 692H639H1271" stroke="#A68A64" stroke-width="3" stroke-linecap="square"/>
<path d="M2 677H639H1271" stroke="#A68A64" stroke-width="3" stroke-linecap="square"/>
<path d="M2 650H639H1271" stroke="#A68A64" stroke-width="3" stroke-linecap="square"/>
<path d="M2 658H639H1271" stroke="#A68A64" stroke-width="3" stroke-linecap="square"/>
<path d="M2 663H639H1271" stroke="#A68A64" stroke-width="3" stroke-linecap="square"/>
<path d="M2 670H639H1271" stroke="#A68A64" stroke-width="3" stroke-linecap="square"/>
<path d="M2 634H639H1271" stroke="#A68A64" stroke-width="3" stroke-linecap="square"/>
<path d="M2 642H639H1271" stroke="#A68A64" stroke-width="3" stroke-linecap="square"/>
<path d="M2 627H639H1271" stroke="#A68A64" stroke-width="3" stroke-linecap="square"/>
<path d="M2 600H639H1271" stroke="#A68A64" stroke-width="3" stroke-linecap="square"/>
<path d="M2 608H639H1271" stroke="#A68A64" stroke-width="3" stroke-linecap="square"/>
<path d="M2 613H639H1271" stroke="#A68A64" stroke-width="3" stroke-linecap="square"/>
<path d="M2 620H639H1271" stroke="#A68A64" stroke-width="3" stroke-linecap="square"/>
<path d="M1271 408H634H2" stroke="#A68A64" stroke-width="3" stroke-linecap="square"/>
<path d="M1271 400H634H2" stroke="#A68A64" stroke-width="3" stroke-linecap="square"/>
<path d="M1271 415H634H2" stroke="#A68A64" stroke-width="3" stroke-linecap="square"/>
<path d="M1271 442H634H2" stroke="#A68A64" stroke-width="3" stroke-linecap="square"/>
<path d="M1271 435H634H2" stroke="#A68A64" stroke-width="3" stroke-linecap="square"/>
<path d="M1271 429H634H2" stroke="#A68A64" stroke-width="3" stroke-linecap="square"/>
<path d="M1271 422H634H2" stroke="#A68A64" stroke-width="3" stroke-linecap="square"/>
<path d="M1271 458H634H2" stroke="#A68A64" stroke-width="3" stroke-linecap="square"/>
<path d="M1271 450H634H2" stroke="#A68A64" stroke-width="3" stroke-linecap="square"/>
<path d="M1271 465H634H2" stroke="#A68A64" stroke-width="3" stroke-linecap="square"/>
<path d="M1271 492H634H2" stroke="#A68A64" stroke-width="3" stroke-linecap="square"/>
<path d="M1271 484H634H2" stroke="#A68A64" stroke-width="3" stroke-linecap="square"/>
<path d="M1271 479H634H2" stroke="#A68A64" stroke-width="3" stroke-linecap="square"/>
<path d="M1271 472H634H2" stroke="#A68A64" stroke-width="3" stroke-linecap="square"/>
<path d="M1271 508H634H2" stroke="#A68A64" stroke-width="3" stroke-linecap="square"/>
<path d="M1271 500H634H2" stroke="#A68A64" stroke-width="3" stroke-linecap="square"/>
<path d="M1271 515H634H2" stroke="#A68A64" stroke-width="3" stroke-linecap="square"/>
<path d="M1271 542H634H2" stroke="#A68A64" stroke-width="3" stroke-linecap="square"/>
<path d="M1271 534H634H2" stroke="#A68A64" stroke-width="3" stroke-linecap="square"/>
<path d="M1271 529H634H2" stroke="#A68A64" stroke-width="3" stroke-linecap="square"/>
<path d="M1271 522H634H2" stroke="#A68A64" stroke-width="3" stroke-linecap="square"/>
<path d="M1271 558H634H2" stroke="#A68A64" stroke-width="3" stroke-linecap="square"/>
<path d="M1271 550H634H2" stroke="#A68A64" stroke-width="3" stroke-linecap="square"/>
<path d="M1271 565H634H2" stroke="#A68A64" stroke-width="3" stroke-linecap="square"/>
<path d="M1271 592H634H2" stroke="#A68A64" stroke-width="3" stroke-linecap="square"/>
<path d="M1271 584H634H2" stroke="#A68A64" stroke-width="3" stroke-linecap="square"/>
<path d="M1271 579H634H2" stroke="#A68A64" stroke-width="3" stroke-linecap="square"/>
<path d="M1271 572H634H2" stroke="#A68A64" stroke-width="3" stroke-linecap="square"/>
<path d="M1271 1206H634H2" stroke="#A68A64" stroke-width="3" stroke-linecap="square"/>
<path d="M1271 1198H634H2" stroke="#A68A64" stroke-width="3" stroke-linecap="square"/>
<path d="M1271 1213H634H2" stroke="#A68A64" stroke-width="3" stroke-linecap="square"/>
<path d="M1271 1240H634H2" stroke="#A68A64" stroke-width="3" stroke-linecap="square"/>
<path d="M1271 1233H634H2" stroke="#A68A64" stroke-width="3" stroke-linecap="square"/>
<path d="M1271 1227H634H2" stroke="#A68A64" stroke-width="3" stroke-linecap="square"/>
<path d="M1271 1220H634H2" stroke="#A68A64" stroke-width="3" stroke-linecap="square"/>
<path d="M1271 1256H634H2" stroke="#A68A64" stroke-width="3" stroke-linecap="square"/>
<path d="M1271 1248H634H2" stroke="#A68A64" stroke-width="3" stroke-linecap="square"/>
<path d="M1271 1263H634H2" stroke="#A68A64" stroke-width="3" stroke-linecap="square"/>
<path d="M1271 1290H634H2" stroke="#A68A64" stroke-width="3" stroke-linecap="square"/>
<path d="M1271 1282H634H2" stroke="#A68A64" stroke-width="3" stroke-linecap="square"/>
<path d="M1271 1277H634H2" stroke="#A68A64" stroke-width="3" stroke-linecap="square"/>
<path d="M1271 1270H634H2" stroke="#A68A64" stroke-width="3" stroke-linecap="square"/>
<path d="M1271 1306H634H2" stroke="#A68A64" stroke-width="3" stroke-linecap="square"/>
<path d="M1271 1298H634H2" stroke="#A68A64" stroke-width="3" stroke-linecap="square"/>
<path d="M1271 1313H634H2" stroke="#A68A64" stroke-width="3" stroke-linecap="square"/>
<path d="M1271 1340H634H2" stroke="#A68A64" stroke-width="3" stroke-linecap="square"/>
<path d="M1271 1332H634H2" stroke="#A68A64" stroke-width="3" stroke-linecap="square"/>
<path d="M1271 1327H634H2" stroke="#A68A64" stroke-width="3" stroke-linecap="square"/>
<path d="M1271 1320H634H2" stroke="#A68A64" stroke-width="3" stroke-linecap="square"/>
<path d="M1271 1356H634H2" stroke="#A68A64" stroke-width="3" stroke-linecap="square"/>
<path d="M1271 1348H634H2" stroke="#A68A64" stroke-width="3" stroke-linecap="square"/>
<path d="M1271 1363H634H2" stroke="#A68A64" stroke-width="3" stroke-linecap="square"/>
<path d="M1271 1390H634H2" stroke="#A68A64" stroke-width="3" stroke-linecap="square"/>
<path d="M1271 1382H634H2" stroke="#A68A64" stroke-width="3" stroke-linecap="square"/>
<path d="M1271 1377H634H2" stroke="#A68A64" stroke-width="3" stroke-linecap="square"/>
<path d="M1271 1370H634H2" stroke="#A68A64" stroke-width="3" stroke-linecap="square"/>
<path d="M2 1582H639H1271" stroke="#A68A64" stroke-width="3" stroke-linecap="square"/>
<path d="M2 1590H639H1271" stroke="#A68A64" stroke-width="3" stroke-linecap="square"/>
<path d="M2 1575H639H1271" stroke="#A68A64" stroke-width="3" stroke-linecap="square"/>
<path d="M2 1548H639H1271" stroke="#A68A64" stroke-width="3" stroke-linecap="square"/>
<path d="M2 1555H639H1271" stroke="#A68A64" stroke-width="3" stroke-linecap="square"/>
<path d="M2 1561H639H1271" stroke="#A68A64" stroke-width="3" stroke-linecap="square"/>
<path d="M2 1568H639H1271" stroke="#A68A64" stroke-width="3" stroke-linecap="square"/>
<path d="M2 1532H639H1271" stroke="#A68A64" stroke-width="3" stroke-linecap="square"/>
<path d="M2 1540H639H1271" stroke="#A68A64" stroke-width="3" stroke-linecap="square"/>
<path d="M2 1525H639H1271" stroke="#A68A64" stroke-width="3" stroke-linecap="square"/>
<path d="M2 1498H639H1271" stroke="#A68A64" stroke-width="3" stroke-linecap="square"/>
<path d="M2 1506H639H1271" stroke="#A68A64" stroke-width="3" stroke-linecap="square"/>
<path d="M2 1511H639H1271" stroke="#A68A64" stroke-width="3" stroke-linecap="square"/>
<path d="M2 1518H639H1271" stroke="#A68A64" stroke-width="3" stroke-linecap="square"/>
<path d="M2 1482H639H1271" stroke="#A68A64" stroke-width="3" stroke-linecap="square"/>
<path d="M2 1490H639H1271" stroke="#A68A64" stroke-width="3" stroke-linecap="square"/>
<path d="M2 1475H639H1271" stroke="#A68A64" stroke-width="3" stroke-linecap="square"/>
<path d="M2 1448H639H1271" stroke="#A68A64" stroke-width="3" stroke-linecap="square"/>
<path d="M2 1456H639H1271" stroke="#A68A64" stroke-width="3" stroke-linecap="square"/>
<path d="M2 1461H639H1271" stroke="#A68A64" stroke-width="3" stroke-linecap="square"/>
<path d="M2 1468H639H1271" stroke="#A68A64" stroke-width="3" stroke-linecap="square"/>
<path d="M2 1432H639H1271" stroke="#A68A64" stroke-width="3" stroke-linecap="square"/>
<path d="M2 1440H639H1271" stroke="#A68A64" stroke-width="3" stroke-linecap="square"/>
<path d="M2 1425H639H1271" stroke="#A68A64" stroke-width="3" stroke-linecap="square"/>
<path d="M2 1398H639H1271" stroke="#A68A64" stroke-width="3" stroke-linecap="square"/>
<path d="M2 1406H639H1271" stroke="#A68A64" stroke-width="3" stroke-linecap="square"/>
<path d="M2 1411H639H1271" stroke="#A68A64" stroke-width="3" stroke-linecap="square"/>
<path d="M2 1418H639H1271" stroke="#A68A64" stroke-width="3" stroke-linecap="square"/>
<path d="M1271 808H634H2" stroke="#A68A64" stroke-width="3" stroke-linecap="square"/>
<path d="M1271 800H634H2" stroke="#A68A64" stroke-width="3" stroke-linecap="square"/>
<path d="M1271 815H634H2" stroke="#A68A64" stroke-width="3" stroke-linecap="square"/>
<path d="M1271 842H634H2" stroke="#A68A64" stroke-width="3" stroke-linecap="square"/>
<path d="M1271 835H634H2" stroke="#A68A64" stroke-width="3" stroke-linecap="square"/>
<path d="M1271 829H634H2" stroke="#A68A64" stroke-width="3" stroke-linecap="square"/>
<path d="M1271 822H634H2" stroke="#A68A64" stroke-width="3" stroke-linecap="square"/>
<path d="M1271 858H634H2" stroke="#A68A64" stroke-width="3" stroke-linecap="square"/>
<path d="M1271 850H634H2" stroke="#A68A64" stroke-width="3" stroke-linecap="square"/>
<path d="M1271 865H634H2" stroke="#A68A64" stroke-width="3" stroke-linecap="square"/>
<path d="M1271 892H634H2" stroke="#A68A64" stroke-width="3" stroke-linecap="square"/>
<path d="M1271 884H634H2" stroke="#A68A64" stroke-width="3" stroke-linecap="square"/>
<path d="M1271 879H634H2" stroke="#A68A64" stroke-width="3" stroke-linecap="square"/>
<path d="M1271 872H634H2" stroke="#A68A64" stroke-width="3" stroke-linecap="square"/>
<path d="M1271 908H634H2" stroke="#A68A64" stroke-width="3" stroke-linecap="square"/>
<path d="M1271 900H634H2" stroke="#A68A64" stroke-width="3" stroke-linecap="square"/>
<path d="M1271 915H634H2" stroke="#A68A64" stroke-width="3" stroke-linecap="square"/>
<path d="M1271 942H634H2" stroke="#A68A64" stroke-width="3" stroke-linecap="square"/>
<path d="M1271 934H634H2" stroke="#A68A64" stroke-width="3" stroke-linecap="square"/>
<path d="M1271 929H634H2" stroke="#A68A64" stroke-width="3" stroke-linecap="square"/>
<path d="M1271 922H634H2" stroke="#A68A64" stroke-width="3" stroke-linecap="square"/>
<path d="M1271 958H634H2" stroke="#A68A64" stroke-width="3" stroke-linecap="square"/>
<path d="M1271 950H634H2" stroke="#A68A64" stroke-width="3" stroke-linecap="square"/>
<path d="M1271 965H634H2" stroke="#A68A64" stroke-width="3" stroke-linecap="square"/>
<path d="M1271 992H634H2" stroke="#A68A64" stroke-width="3" stroke-linecap="square"/>
<path d="M1271 984H634H2" stroke="#A68A64" stroke-width="3" stroke-linecap="square"/>
<path d="M1271 979H634H2" stroke="#A68A64" stroke-width="3" stroke-linecap="square"/>
<path d="M1271 972H634H2" stroke="#A68A64" stroke-width="3" stroke-linecap="square"/>
<path d="M2 1184H639H1271" stroke="#A68A64" stroke-width="3" stroke-linecap="square"/>
<path d="M2 1192H639H1271" stroke="#A68A64" stroke-width="3" stroke-linecap="square"/>
<path d="M2 1177H639H1271" stroke="#A68A64" stroke-width="3" stroke-linecap="square"/>
<path d="M2 1150H639H1271" stroke="#A68A64" stroke-width="3" stroke-linecap="square"/>
<path d="M2 1157H639H1271" stroke="#A68A64" stroke-width="3" stroke-linecap="square"/>
<path d="M2 1163H639H1271" stroke="#A68A64" stroke-width="3" stroke-linecap="square"/>
<path d="M2 1170H639H1271" stroke="#A68A64" stroke-width="3" stroke-linecap="square"/>
<path d="M2 1134H639H1271" stroke="#A68A64" stroke-width="3" stroke-linecap="square"/>
<path d="M2 1142H639H1271" stroke="#A68A64" stroke-width="3" stroke-linecap="square"/>
<path d="M2 1127H639H1271" stroke="#A68A64" stroke-width="3" stroke-linecap="square"/>
<path d="M2 1100H639H1271" stroke="#A68A64" stroke-width="3" stroke-linecap="square"/>
<path d="M2 1108H639H1271" stroke="#A68A64" stroke-width="3" stroke-linecap="square"/>
<path d="M2 1113H639H1271" stroke="#A68A64" stroke-width="3" stroke-linecap="square"/>
<path d="M2 1120H639H1271" stroke="#A68A64" stroke-width="3" stroke-linecap="square"/>
<path d="M2 1084H639H1271" stroke="#A68A64" stroke-width="3" stroke-linecap="square"/>
<path d="M2 1092H639H1271" stroke="#A68A64" stroke-width="3" stroke-linecap="square"/>
<path d="M2 1077H639H1271" stroke="#A68A64" stroke-width="3" stroke-linecap="square"/>
<path d="M2 1050H639H1271" stroke="#A68A64" stroke-width="3" stroke-linecap="square"/>
<path d="M2 1058H639H1271" stroke="#A68A64" stroke-width="3" stroke-linecap="square"/>
<path d="M2 1063H639H1271" stroke="#A68A64" stroke-width="3" stroke-linecap="square"/>
<path d="M2 1070H639H1271" stroke="#A68A64" stroke-width="3" stroke-linecap="square"/>
<path d="M2 1034H639H1271" stroke="#A68A64" stroke-width="3" stroke-linecap="square"/>
<path d="M2 1042H639H1271" stroke="#A68A64" stroke-width="3" stroke-linecap="square"/>
<path d="M2 1027H639H1271" stroke="#A68A64" stroke-width="3" stroke-linecap="square"/>
<path d="M2 1000H639H1271" stroke="#A68A64" stroke-width="3" stroke-linecap="square"/>
<path d="M2 1008H639H1271" stroke="#A68A64" stroke-width="3" stroke-linecap="square"/>
<path d="M2 1013H639H1271" stroke="#A68A64" stroke-width="3" stroke-linecap="square"/>
<path d="M2 1020H639H1271" stroke="#A68A64" stroke-width="3" stroke-linecap="square"/>
</svg>
